<?xml version="1.0" encoding="UTF-8"?>
<svg id="a" data-name="Layer 1 copy" xmlns="http://www.w3.org/2000/svg" viewBox="0 0 2757.91 2113.47">
  <defs>
    <style>
      .b {
        fill: #2c7d96;
      }
    </style>
  </defs>
  <path class="b" d="M1889.03,1736c-15.77-117.33-69.48-216.73-172.11-283.93,81.81-21.48,165.13-38.1,244.77-65.49,114.3-39.26,209.96-106.97,271.65-214.35,97.63-169.83,75.14-379.33-57.2-539.26-10.91-13.19-13.49-23.85-8.74-40.48,20.31-71.65,32.85-144.87,25.77-219.46-2.93-31.18-13.85-61.85-23.4-92.02-6.37-20.11-21.83-25.87-43.81-24-106.27,9.1-195.81,52.76-269.88,128.2-13.95,14.25-25.11,16.12-43.56,10.46-175.49-53.97-351.49-53.71-527.14-.76-19.96,6.06-32.44,4.55-47.85-11.32-62.05-63.92-137.29-104.6-225.37-121.02-72.21-13.44-93.73,.91-107.18,74.69-12.43,68.27-8.49,136.84,9.65,202.78,14.25,51.69,5.76,88.73-26.88,133.55-141.29,193.99-116.47,447.55,53.31,602.58,82.92,75.69,182.87,118.85,290.25,145.88,49.32,12.43,99.7,20.67,146.44,30.22-26.83,26.17-58.11,50.89-81.76,81.46-24.46,31.53-41.23,69.03-62.25,103.34-3.34,5.41-11.42,10.86-17.59,11.12-66.3,3.23-132.64,6.67-198.99,7.38-37.49,.4-67.41-18.49-91.11-47.3-20.87-25.37-41.08-51.34-63.52-75.24-31.53-33.55-69.13-58.97-113.59-72.66-17.33-5.31-36.94-4.35-43.31,13.74-2.88,8.29,8.49,25.82,17.99,33.45,35.73,28.7,62.56,63.67,79.99,105.51,16.42,39.57,30.37,80.14,46.08,120.01,23.3,59.17,67.56,96.01,127.89,111.98,26.53,6.97,54.83,8.84,82.42,9.75,45.12,1.57,90.4,.46,135.17,.46,2.27,72.82,4.45,143.46,6.62,213.74,100.96,28.95,207.53,44.47,317.79,44.47,131.43,0,257.66-22.03,375.24-62.66v-93.48c-.35-73.98,3.99-148.61-5.81-221.32Zm-172.81-284.49c-1.21-1.01-1.31-3.23,0,0h0Z"/>
</svg>