<?xml version="1.0" encoding="UTF-8"?>
<svg id="a" data-name="Layer 1 copy" xmlns="http://www.w3.org/2000/svg" viewBox="0 0 2757.91 2113.47">
  <defs>
    <style>
      .b {
        fill: #2179aa;
      }
    </style>
  </defs>
  <path class="b" d="M2176.25,1071.31c-113.65-198.14-423.12-216.97-570.06-34.95-6.3,7.8-12.36,15.79-18.53,23.7-2.09-.77-4.18-1.53-6.27-2.3,0-28.5-1.26-57.08,.39-85.49,1.37-23.7-6.75-32.26-30.99-31.89-76.13,1.15-152.3,1.11-228.43-.07-24.17-.38-31.14,8.21-31.09,31.85,.71,304.6,.79,609.19,.16,913.79-.05,23.22,7.71,29.82,29.89,29.52,73.24-1,146.51-.32,219.77-.39,39.9-.04,40.01-.12,40.04-38.82,.13-160.01-2.02-320.06,1.7-479.99,1.02-43.78,13.12-90.09,31.48-130.03,28.64-62.3,99.3-88.54,181.2-77.9,59.62,7.75,105.55,50.16,120.33,116.9,7.64,34.5,11.48,70.5,11.76,105.87,1.24,157.11,.92,314.23,.2,471.35-.1,22.3,4.16,33.32,29.67,32.94,80.95-1.23,161.93-.86,242.9-.12,20.88,.19,28.71-6.64,28.63-28.39-.73-203.38,.37-406.77-1.14-610.15-.53-71.98-15.22-141.96-51.61-205.42Z"/>
  <path class="b" d="M1067.31,940.06c-78.02,1.5-156.1,1.65-234.11,.02-28.74-.6-35.36,10.27-35.29,37.06,.76,301.58,.81,603.16-.09,904.73-.08,27.72,10.19,34.02,35.36,33.65,78.03-1.15,156.1-1.35,234.12,.15,27.2,.52,33.76-9.1,33.55-35.19-1.18-150.3-.58-300.61-.58-450.92h.21c0-151.27-.46-302.55,.45-453.81,.15-25.34-6.06-36.22-33.62-35.69Z"/>
  <path class="b" d="M947.01,454.46c-98.31,.88-176.94,80.47-177.24,179.41-.31,100.85,78.68,180.8,178.46,180.63,98.16-.16,177-79.73,177.29-178.95,.3-100.36-80.15-181.97-178.51-181.1Z"/>
</svg>