<?xml version="1.0" encoding="UTF-8"?>
<svg id="a" data-name="Layer 1 copy" xmlns="http://www.w3.org/2000/svg" viewBox="0 0 2757.91 2113.47">
  <defs>
    <style>
      .b {
        fill: #b6e4ff;
      }
    </style>
  </defs>
  <path class="b" d="M1422.13,2103.21h579.37c106.48,0,193.12-79.2,193.12-176.61V690.35h0v-141.29h0v-105.96c0-97.38-86.64-176.61-193.12-176.61h-656.62c-20.48,0-40.13,7.45-54.62,20.7l-463.5,423.86c-14.48,13.25-22.63,31.22-22.63,49.95V1926.61c0,97.41,86.64,176.61,193.12,176.61h270.37v.44h154.5v-.44Zm-154.5-1595.54v147.36c0,19.49-17.31,35.32-38.62,35.32h-161.14l199.76-182.68Zm-270.37,1454.25c-21.31,0-38.62-15.87-38.62-35.32V831.64h270.37c106.48,0,193.12-79.23,193.12-176.61v-247.25h579.37c21.31,0,38.62,15.83,38.62,35.32V1926.61c0,19.45-17.31,35.32-38.62,35.32H997.26Z"/>
  <path class="b" d="M1808.38,1228.77h-618c-42.66,0-77.25,34.04-77.25,76.03s34.59,76.04,77.25,76.04h618c42.66,0,77.25-34.01,77.25-76.04s-34.59-76.03-77.25-76.03Z"/>
  <path class="b" d="M1808.38,886.62h-386.25c-42.66,0-77.25,34.05-77.25,76.04s34.59,76.04,77.25,76.04h386.25c42.66,0,77.25-34.05,77.25-76.04s-34.59-76.04-77.25-76.04Z"/>
  <path class="b" d="M1808.38,1570.93h-618c-42.66,0-77.25,34.01-77.25,76.04s34.59,76.04,77.25,76.04h618c42.66,0,77.25-34.01,77.25-76.04s-34.59-76.04-77.25-76.04Z"/>
</svg>